<svg width="196" height="142" viewBox="0 0 196 142" fill="none" xmlns="http://www.w3.org/2000/svg">
<path id="Vector" opacity="0.5" d="M0.5 44.2324C0.5 32.2833 0.5 26.3087 4.7536 22.824C6.26381 21.5868 8.09927 20.5965 10.1448 19.9153C15.9064 17.9967 23.4785 19.886 38.6226 23.6647C50.1845 26.5495 55.9654 27.9919 61.807 27.8426C63.9523 27.7878 66.0852 27.574 68.1742 27.2044C73.8624 26.1979 78.9326 23.6678 89.073 18.6074L104.049 11.1342C117.038 4.6521 123.533 1.41107 130.988 0.663725C138.444 -0.0836173 145.849 1.76406 160.659 5.4594L173.277 8.60783C184.003 11.2839 189.365 12.622 192.433 15.8075C195.5 18.993 195.5 23.2243 195.5 31.6869V97.6009C195.5 109.55 195.5 115.525 191.246 119.009C189.736 120.247 187.901 121.237 185.855 121.918C180.094 123.837 172.522 121.947 157.377 118.169C145.815 115.284 140.035 113.841 134.193 113.991C132.048 114.046 129.915 114.259 127.826 114.629C122.138 115.635 117.067 118.166 106.927 123.226L91.9512 130.699C78.9618 137.181 72.467 140.422 65.0117 141.17C57.5564 141.917 50.1512 140.069 35.3409 136.374L22.7226 133.225C11.9973 130.549 6.63463 129.211 3.56731 126.026C0.5 122.84 0.5 118.609 0.5 110.146V44.2324Z" fill="url(#paint0_radial_477_1824)"/>
<defs>
<radialGradient id="paint0_radial_477_1824" cx="0" cy="0" r="1" gradientUnits="userSpaceOnUse" gradientTransform="translate(0.500006 141.333) rotate(-35.8377) scale(240.539 507.319)">
<stop stop-color="#803AF5"/>
<stop offset="1" stop-color="#17B4D9"/>
</radialGradient>
</defs>
</svg>
